<svg xmlns="http://www.w3.org/2000/svg" viewBox="0 0 1920 1080">
  <!--
    School gate at night.
    Iron gate with spear-top vertical bars.
    A lamp post casts amber light.
    School building in background with ONE lit window — figure inside.
  -->
  <defs>
    <linearGradient id="skyG" x1="0" y1="0" x2="0" y2="1">
      <stop offset="0%"   stop-color="#0c0b22"/>
      <stop offset="40%"  stop-color="#1a1030"/>
      <stop offset="75%"  stop-color="#200e14"/>
      <stop offset="100%" stop-color="#140c0c"/>
    </linearGradient>
    <radialGradient id="lampGlow" cx="50%" cy="20%" r="80%">
      <stop offset="0%"   stop-color="#5a3808" stop-opacity="0.6"/>
      <stop offset="40%"  stop-color="#2a1c04" stop-opacity="0.25"/>
      <stop offset="100%" stop-color="transparent"/>
    </radialGradient>
    <linearGradient id="groundG" x1="0" y1="0" x2="0" y2="1">
      <stop offset="0%"   stop-color="#120e0e"/>
      <stop offset="100%" stop-color="#0a0808"/>
    </linearGradient>
    <radialGradient id="moonHalo" cx="50%" cy="50%" r="50%">
      <stop offset="0%"   stop-color="#b8a050" stop-opacity="0.45"/>
      <stop offset="60%"  stop-color="#604820" stop-opacity="0.12"/>
      <stop offset="100%" stop-color="transparent"/>
    </radialGradient>
  </defs>

  <!-- Sky -->
  <rect width="1920" height="1080" fill="url(#skyG)"/>

  <!-- Stars -->
  <circle cx="240"  cy="62"  r="1.8" fill="#d0c8e8" opacity="0.75"/>
  <circle cx="420"  cy="97"  r="1.4" fill="#c8c0e0" opacity="0.65"/>
  <circle cx="620"  cy="47"  r="2.0" fill="#e0d8f8" opacity="0.8"/>
  <circle cx="780"  cy="132" r="1.4" fill="#c8c0e0" opacity="0.6"/>
  <circle cx="1050" cy="57"  r="1.8" fill="#d0c8e8" opacity="0.7"/>
  <circle cx="1260" cy="92"  r="1.4" fill="#c8c0e0" opacity="0.65"/>
  <circle cx="1440" cy="42"  r="2.0" fill="#e0d8f8" opacity="0.75"/>
  <circle cx="1680" cy="122" r="1.4" fill="#c8c0e0" opacity="0.6"/>
  <circle cx="1800" cy="67"  r="1.8" fill="#d0c8e8" opacity="0.7"/>
  <circle cx="900"  cy="172" r="1.2" fill="#b8b0d0" opacity="0.55"/>

  <!-- Moon glow + body -->
  <ellipse cx="1500" cy="205" rx="240" ry="145" fill="url(#moonHalo)"/>
  <circle  cx="1500" cy="205" r="50"  fill="#d0b858"/>
  <circle  cx="1500" cy="205" r="42"  fill="#e0c868"/>
  <!-- Clouds -->
  <ellipse cx="1400" cy="220" rx="175" ry="42"  fill="#1e1428" opacity="0.88"/>
  <ellipse cx="1580" cy="200" rx="140" ry="34"  fill="#1a1224" opacity="0.82"/>

  <!-- Ground -->
  <rect x="0" y="790" width="1920" height="290" fill="url(#groundG)"/>
  <rect x="0" y="788" width="1920" height="5"   fill="#100c0c"/>
  <rect x="870" y="830" width="180" height="8"  fill="#18141a" opacity="0.6"/>
  <rect x="870" y="870" width="180" height="8"  fill="#18141a" opacity="0.5"/>
  <rect x="870" y="910" width="180" height="8"  fill="#18141a" opacity="0.4"/>

  <!-- SCHOOL BUILDING -->
  <rect x="170"  y="260" width="1580" height="535" fill="#181828"/>
  <rect x="148"  y="243" width="1624" height="20"  fill="#20203a"/>
  <rect x="128"  y="230" width="1664" height="16"  fill="#28283e"/>
  <rect x="170"  y="432" width="1580" height="5"   fill="#101020"/>
  <rect x="170"  y="605" width="1580" height="5"   fill="#101020"/>
  <rect x="170"  y="260" width="24"   height="535" fill="#101018"/>
  <rect x="1726" y="260" width="24"   height="535" fill="#101018"/>

  <!-- 3rd-floor windows (dark) -->
  <rect x="290"  y="278" width="68"  height="115" fill="#0c0c1e" rx="2"/>
  <rect x="430"  y="278" width="68"  height="115" fill="#0c0c1e" rx="2"/>
  <rect x="570"  y="278" width="68"  height="115" fill="#0c0c1e" rx="2"/>
  <rect x="710"  y="278" width="68"  height="115" fill="#0c0c1e" rx="2"/>
  <rect x="850"  y="278" width="68"  height="115" fill="#0c0c1e" rx="2"/>
  <rect x="990"  y="278" width="68"  height="115" fill="#0c0c1e" rx="2"/>
  <rect x="1130" y="278" width="68"  height="115" fill="#0c0c1e" rx="2"/>
  <rect x="1270" y="278" width="68"  height="115" fill="#0c0c1e" rx="2"/>
  <rect x="1410" y="278" width="68"  height="115" fill="#0c0c1e" rx="2"/>
  <rect x="1550" y="278" width="68"  height="115" fill="#0c0c1e" rx="2"/>

  <!-- ONE LIT WINDOW — figure inside -->
  <rect x="710"  y="278" width="68"  height="115" fill="#3a2a0a" rx="2"/>
  <rect x="714"  y="282" width="60"  height="107" fill="#4e3a14"/>
  <ellipse cx="744" cy="336" rx="72" ry="88"   fill="#4a2e08" opacity="0.35"/>
  <ellipse cx="744" cy="302" rx="12" ry="14"   fill="#0c0a06"/>
  <rect    x="737" y="315" width="14" height="45"  fill="#0c0a06"/>
  <rect    x="728" y="318" width="10" height="28"  fill="#0c0a06"/>
  <rect    x="751" y="318" width="10" height="28"  fill="#0c0a06"/>
  <rect    x="737" y="358" width="8"  height="28"  fill="#0c0a06"/>
  <rect    x="749" y="358" width="8"  height="28"  fill="#0c0a06"/>

  <!-- 2nd-floor windows -->
  <rect x="290"  y="452" width="68"  height="112" fill="#0c0c1e" rx="2"/>
  <rect x="430"  y="452" width="68"  height="112" fill="#0c0c1e" rx="2"/>
  <rect x="570"  y="452" width="68"  height="112" fill="#0c0c1e" rx="2"/>
  <rect x="710"  y="452" width="68"  height="112" fill="#0c0c1e" rx="2"/>
  <rect x="850"  y="452" width="68"  height="112" fill="#0c0c1e" rx="2"/>
  <rect x="990"  y="452" width="68"  height="112" fill="#0c0c1e" rx="2"/>
  <rect x="1130" y="452" width="68"  height="112" fill="#0c0c1e" rx="2"/>
  <rect x="1270" y="452" width="68"  height="112" fill="#0c0c1e" rx="2"/>
  <rect x="1410" y="452" width="68"  height="112" fill="#0c0c1e" rx="2"/>
  <rect x="1550" y="452" width="68"  height="112" fill="#0c0c1e" rx="2"/>

  <!-- 1st-floor windows -->
  <rect x="290"  y="624" width="68"  height="104" fill="#0c0c1e" rx="2"/>
  <rect x="430"  y="624" width="68"  height="104" fill="#0c0c1e" rx="2"/>
  <rect x="570"  y="624" width="68"  height="104" fill="#0c0c1e" rx="2"/>
  <rect x="1270" y="624" width="68"  height="104" fill="#0c0c1e" rx="2"/>
  <rect x="1410" y="624" width="68"  height="104" fill="#0c0c1e" rx="2"/>
  <rect x="1550" y="624" width="68"  height="104" fill="#0c0c1e" rx="2"/>
  <rect x="878"  y="622" width="164" height="163" fill="#0a0a16" rx="2"/>

  <!-- Trees -->
  <path d="M 260,790 L 306,488 L 352,790 Z" fill="#0e0e18"/>
  <rect x="298" y="720" width="12"  height="70"  fill="#181818"/>
  <ellipse cx="306" cy="510" rx="46" ry="42" fill="#121218" opacity="0.9"/>
  <path d="M 1558,790 L 1602,500 L 1646,790 Z" fill="#0e0e18"/>
  <rect x="1594" y="724" width="12"  height="66"  fill="#181818"/>
  <ellipse cx="1602" cy="520" rx="44" ry="40" fill="#121218" opacity="0.9"/>

  <!-- GATE PILLARS -->
  <rect x="582"  y="592" width="55"  height="200" fill="#202038"/>
  <rect x="577"  y="583" width="65"  height="14"  fill="#28283e"/>
  <rect x="572"  y="570" width="75"  height="16"  fill="#30304a"/>
  <rect x="1283" y="592" width="55"  height="200" fill="#202038"/>
  <rect x="1278" y="583" width="65"  height="14"  fill="#28283e"/>
  <rect x="1273" y="570" width="75"  height="16"  fill="#30304a"/>

  <!-- Gate bars left half -->
  <rect x="637"  y="610" width="330" height="9"   fill="#1e1e34"/>
  <rect x="637"  y="702" width="330" height="7"   fill="#1e1e34"/>
  <rect x="637"  y="764" width="330" height="7"   fill="#1c1c30"/>
  <rect x="645"  y="610" width="6"   height="162" fill="#202038"/>
  <rect x="673"  y="610" width="6"   height="162" fill="#202038"/>
  <rect x="701"  y="610" width="6"   height="162" fill="#202038"/>
  <rect x="729"  y="610" width="6"   height="162" fill="#202038"/>
  <rect x="757"  y="610" width="6"   height="162" fill="#202038"/>
  <rect x="785"  y="610" width="6"   height="162" fill="#202038"/>
  <rect x="813"  y="610" width="6"   height="162" fill="#202038"/>
  <rect x="841"  y="610" width="6"   height="162" fill="#202038"/>
  <rect x="869"  y="610" width="6"   height="162" fill="#202038"/>
  <rect x="897"  y="610" width="6"   height="162" fill="#202038"/>
  <rect x="925"  y="610" width="6"   height="162" fill="#202038"/>
  <rect x="953"  y="610" width="6"   height="162" fill="#202038"/>
  <polygon points="648,601 651,610 654,601" fill="#28283e"/>
  <polygon points="676,601 679,610 682,601" fill="#28283e"/>
  <polygon points="704,601 707,610 710,601" fill="#28283e"/>
  <polygon points="732,601 735,610 738,601" fill="#28283e"/>
  <polygon points="760,601 763,610 766,601" fill="#28283e"/>
  <polygon points="788,601 791,610 794,601" fill="#28283e"/>
  <polygon points="816,601 819,610 822,601" fill="#28283e"/>
  <polygon points="844,601 847,610 850,601" fill="#28283e"/>

  <!-- Gate bars right half -->
  <rect x="967"  y="610" width="316" height="9"   fill="#1e1e34"/>
  <rect x="967"  y="702" width="316" height="7"   fill="#1e1e34"/>
  <rect x="967"  y="764" width="316" height="7"   fill="#1c1c30"/>
  <rect x="975"  y="610" width="6"   height="162" fill="#202038"/>
  <rect x="1003" y="610" width="6"   height="162" fill="#202038"/>
  <rect x="1031" y="610" width="6"   height="162" fill="#202038"/>
  <rect x="1059" y="610" width="6"   height="162" fill="#202038"/>
  <rect x="1087" y="610" width="6"   height="162" fill="#202038"/>
  <rect x="1115" y="610" width="6"   height="162" fill="#202038"/>
  <rect x="1143" y="610" width="6"   height="162" fill="#202038"/>
  <rect x="1171" y="610" width="6"   height="162" fill="#202038"/>
  <rect x="1199" y="610" width="6"   height="162" fill="#202038"/>
  <rect x="1227" y="610" width="6"   height="162" fill="#202038"/>
  <rect x="1255" y="610" width="6"   height="162" fill="#202038"/>
  <polygon points="978,601  981,610  984,601"  fill="#28283e"/>
  <polygon points="1006,601 1009,610 1012,601" fill="#28283e"/>
  <polygon points="1034,601 1037,610 1040,601" fill="#28283e"/>
  <polygon points="1062,601 1065,610 1068,601" fill="#28283e"/>
  <polygon points="1090,601 1093,610 1096,601" fill="#28283e"/>
  <polygon points="1118,601 1121,610 1124,601" fill="#28283e"/>
  <polygon points="1146,601 1149,610 1152,601" fill="#28283e"/>
  <polygon points="1174,601 1177,610 1180,601" fill="#28283e"/>

  <!-- Boundary walls -->
  <rect x="0"    y="686" width="582" height="106" fill="#1a1a28"/>
  <rect x="1338" y="686" width="582" height="106" fill="#1a1a28"/>
  <rect x="0"    y="678" width="582" height="11"  fill="#22223a"/>
  <rect x="1338" y="678" width="582" height="11"  fill="#22223a"/>

  <!-- LAMP POST -->
  <rect x="1358" y="395" width="10"  height="398" fill="#202030"/>
  <rect x="1315" y="390" width="50"  height="8"   fill="#202030"/>
  <rect x="1295" y="364" width="30"  height="34"  fill="#282840"/>
  <rect x="1300" y="368" width="22"  height="24"  fill="#6a4a18"/>
  <polygon points="1288,398 1330,398 1323,414 1296,414" fill="#1e1e30"/>
  <ellipse cx="1310" cy="392" rx="230" ry="270" fill="url(#lampGlow)"/>
  <ellipse cx="1320" cy="832" rx="170" ry="55"  fill="#2a1a06" opacity="0.45"/>
  <ellipse cx="1320" cy="844" rx="95"  ry="30"  fill="#361e06" opacity="0.38"/>

  <!-- Vignette -->
  <rect width="1920" height="1080" fill="#000010" opacity="0.22"/>
</svg>
